<svg width="50" height="50" viewBox="0 0 50 50" fill="none" xmlns="http://www.w3.org/2000/svg">
<path d="M27.5861 24.3685C27.4275 24.3359 27.2949 24.2274 27.2341 24.0799C27.1733 23.9301 27.1885 23.7587 27.2775 23.6263C27.6317 23.0924 28.629 21.7274 28.6377 21.7144L29.5524 20.4622L28.2987 21.3758C28.2857 21.3867 26.919 22.3806 26.3845 22.7343C26.2498 22.8233 26.0803 22.8385 25.9304 22.7778C25.7827 22.7148 25.674 22.5846 25.6414 22.4262C25.5502 21.9748 25.359 15.0151 25.2525 10.4473L25.0091 0L24.7658 10.4473C24.6593 15.0176 24.4681 21.9795 24.3769 22.4262C24.3465 22.5846 24.2378 22.717 24.0879 22.7778C23.938 22.8385 23.7685 22.8233 23.6338 22.7343C23.108 22.385 21.7348 21.3867 21.7217 21.378L20.4702 20.4687L21.3806 21.7187C21.3915 21.7318 22.3888 23.1011 22.7408 23.6285V23.6263C22.8298 23.7587 22.8472 23.9301 22.7842 24.0799C22.7234 24.2274 22.5908 24.3359 22.4322 24.3685C21.9803 24.4596 15.0121 24.6506 10.4404 24.7569L0 24.9978L10.4404 25.2409C15.0163 25.3472 21.9867 25.5404 22.4339 25.6293H22.4317C22.5903 25.6619 22.7229 25.7704 22.7837 25.9201C22.8467 26.0699 22.8293 26.2392 22.7402 26.3737C22.3904 26.901 21.3909 28.2704 21.3801 28.2834L20.4697 29.5313L21.7191 28.622C21.7343 28.6111 23.1053 27.615 23.6311 27.2656H23.6333C23.768 27.1767 23.9375 27.1593 24.0874 27.2201C24.2373 27.283 24.346 27.4154 24.3764 27.5738C24.4676 28.0209 24.6588 34.9827 24.7653 39.555L25.0086 50L25.252 39.5527C25.3585 34.9846 25.5497 28.0249 25.6409 27.5716C25.6735 27.4153 25.7822 27.283 25.9299 27.22C26.0798 27.1593 26.2493 27.1766 26.384 27.2656C26.912 27.615 28.283 28.6133 28.2982 28.6241L29.5519 29.5356L28.6372 28.2834C28.6263 28.2704 27.6312 26.9053 27.277 26.3737C27.188 26.2391 27.1706 26.0698 27.2336 25.9201C27.2944 25.7703 27.427 25.6618 27.5856 25.6293C28.0332 25.5381 35.0012 25.3472 39.5774 25.2408L50 24.9978L39.5774 24.7547C35.0015 24.6506 28.0338 24.4596 27.5861 24.3685Z" fill="#D2885F"/>
</svg>
