<svg width="52" height="69" viewBox="0 0 52 69" fill="none" xmlns="http://www.w3.org/2000/svg">
<path d="M27.9302 29.6543C28.5649 29.6543 28.8823 30.0612 28.8823 30.875C28.8823 31.6888 28.5405 32.4212 27.8569 33.0723C27.1733 33.7233 26.4165 34.0488 25.5864 34.0488L16.2969 34C15.1738 34 14.4577 33.9715 14.1484 33.9146C13.5055 33.7437 13.1719 33.4059 13.1475 32.9014C13.1475 32.6165 13.4242 32.4375 13.9775 32.3643C14.238 32.3236 14.4129 32.2829 14.5024 32.2422C14.8198 32.112 14.9785 31.8231 14.9785 31.3755V19.4736C14.9785 18.8877 14.6733 18.554 14.063 18.4727C13.9491 18.4564 13.8433 18.4442 13.7456 18.436C13.6479 18.4198 13.5666 18.4076 13.5015 18.3994C13.4364 18.3831 13.3916 18.3669 13.3672 18.3506C13.3428 18.3343 13.3102 18.314 13.2695 18.2896C13.237 18.257 13.2126 18.2204 13.1963 18.1797C13.1637 18.0739 13.1475 17.9355 13.1475 17.7646C13.1475 17.5938 13.2085 17.4351 13.3306 17.2886C13.4608 17.134 13.6846 17.0282 14.002 16.9712C14.4089 16.8979 15.1738 16.8613 16.2969 16.8613H26.4653C27.0838 16.8613 27.5802 17.1055 27.9546 17.5938C28.3371 18.082 28.5283 18.6761 28.5283 19.376C28.5283 20.5804 28.1092 21.1826 27.271 21.1826C26.7502 21.1826 26.388 21.0199 26.1846 20.6943C25.9893 20.3607 25.8916 19.9294 25.8916 19.4004C25.8916 18.8633 25.8957 18.4971 25.9038 18.3018H17.6519V24.3931H22.8887C22.9456 24.3361 23.0433 24.1693 23.1816 23.8926C23.556 23.1357 23.8286 22.7573 23.9995 22.7573C24.9191 22.7573 25.3789 23.5386 25.3789 25.1011C25.3789 25.7684 25.2812 26.3462 25.0859 26.8345C24.8988 27.3146 24.5977 27.5547 24.1826 27.5547C23.9629 27.5547 23.7798 27.4733 23.6333 27.3105C23.495 27.1478 23.3485 26.8833 23.1938 26.5171C23.0474 26.1509 22.9416 25.9108 22.8765 25.7969H17.6519V32.4009H25.4521C25.5986 32.2544 25.8143 31.9329 26.0991 31.4365C26.384 30.9401 26.6769 30.521 26.978 30.1792C27.2791 29.8293 27.5965 29.6543 27.9302 29.6543Z" fill="#D84130"/>
<path d="M34.916 51.6929C36.1286 51.1639 37.0767 50.3704 37.7603 49.3125C38.452 48.2546 38.7979 47.0827 38.7979 45.7969C38.7979 44.5111 38.627 43.4531 38.2852 42.623C37.9515 41.793 37.4876 41.1134 36.8936 40.5845C36.3076 40.0474 35.5711 39.612 34.6841 39.2783C33.0728 38.6598 30.9731 38.3506 28.3853 38.3506C27.2215 38.3506 26.6396 38.4442 26.6396 38.6313V52.2666C27.9255 52.4049 29.3211 52.4741 30.8267 52.4741C32.3403 52.4741 33.7035 52.2137 34.916 51.6929ZM38.9688 39.5469C39.75 40.1491 40.3685 40.9059 40.8242 41.8174C41.2881 42.7207 41.52 43.7461 41.52 44.8936C41.52 46.0329 41.341 47.099 40.9829 48.0918C40.633 49.0765 40.1406 49.931 39.5059 50.6553C38.8792 51.3714 38.1305 51.9818 37.2598 52.4863C35.5264 53.5036 33.4715 54.0122 31.0952 54.0122C30.257 53.9959 28.7962 53.9878 26.7129 53.9878C24.6296 53.9878 23.4333 53.9552 23.124 53.8901C22.4974 53.7274 22.1719 53.3937 22.1475 52.8892C22.1475 52.6043 22.4242 52.4253 22.9775 52.3521C23.238 52.3195 23.4129 52.2829 23.5024 52.2422C23.8198 52.112 23.9785 51.819 23.9785 51.3633V39.4736C23.9785 38.8551 23.6733 38.5215 23.063 38.4727C22.5503 38.432 22.2695 38.3547 22.2207 38.2407C22.1719 38.1268 22.1475 37.9762 22.1475 37.7891C22.1475 37.6019 22.2085 37.4351 22.3306 37.2886C22.4526 37.134 22.6724 37.0282 22.9897 36.9712C23.3966 36.8979 24.1616 36.8613 25.2847 36.8613H29.0566C33.3617 36.8613 36.6657 37.7565 38.9688 39.5469Z" fill="#D84130"/>
<path d="M26 1C32.7964 1 39.0238 4.65341 43.5859 10.707C48.1484 16.7611 51 25.1697 51 34.5C51 43.8303 48.1484 52.2389 43.5859 58.293C39.0238 64.3466 32.7964 68 26 68C19.2036 68 12.9762 64.3466 8.41406 58.293C3.85161 52.2389 1 43.8303 1 34.5C1 25.1697 3.85161 16.7611 8.41406 10.707C12.9762 4.65341 19.2036 1 26 1Z" stroke="#D84130" stroke-width="2"/>
</svg>
